<svg width="82" height="40" viewBox="0 0 82 40" fill="none" xmlns="http://www.w3.org/2000/svg">
    <!-- Background -->
    <rect width="82" height="40" rx="8" fill="#4F46E5"/>
    
    <!-- Left chat bubble -->
    <path d="M12 12C12 10.8954 12.8954 10 14 10H30C31.1046 10 32 10.8954 32 12V20C32 21.1046 31.1046 22 30 22H14C12.8954 22 12 21.1046 12 20V12Z" 
          fill="white" 
          opacity="0.9">
        <animate attributeName="opacity" values="0.9;1;0.9" dur="2s" repeatCount="indefinite"/>
    </path>
    
    <!-- Right chat bubble -->
    <path d="M50 18C50 16.8954 50.8954 16 52 16H68C69.1046 16 70 16.8954 70 18V26C70 27.1046 69.1046 28 68 28H52C50.8954 28 50 27.1046 50 26V18Z" 
          fill="white" 
          opacity="0.7">
        <animate attributeName="opacity" values="0.7;0.8;0.7" dur="2s" repeatCount="indefinite"/>
    </path>
    
    <!-- Message lines in left bubble -->
    <path d="M16 14H28" stroke="#4F46E5" stroke-width="2" stroke-linecap="round"/>
    <path d="M16 18H24" stroke="#4F46E5" stroke-width="2" stroke-linecap="round"/>
    
    <!-- Message lines in right bubble -->
    <path d="M54 20H66" stroke="#4F46E5" stroke-width="2" stroke-linecap="round"/>
    <path d="M54 24H62" stroke="#4F46E5" stroke-width="2" stroke-linecap="round"/>
    
    <!-- Connecting dots -->
    <circle cx="38" cy="20" r="2" fill="white">
        <animate attributeName="opacity" values="1;0.3;1" dur="1s" repeatCount="indefinite"/>
    </circle>
    <circle cx="42" cy="20" r="2" fill="white">
        <animate attributeName="opacity" values="1;0.3;1" dur="1s" begin="0.3s" repeatCount="indefinite"/>
    </circle>
    <circle cx="46" cy="20" r="2" fill="white">
        <animate attributeName="opacity" values="1;0.3;1" dur="1s" begin="0.6s" repeatCount="indefinite"/>
    </circle>
    
    <!-- Shine effect -->
    <rect width="82" height="40" rx="8" fill="url(#shine)" fill-opacity="0.1"/>
    
    <defs>
        <linearGradient id="shine" x1="0" y1="0" x2="82" y2="40" gradientUnits="userSpaceOnUse">
            <stop offset="0" stop-color="white"/>
            <stop offset="0.5" stop-color="white" stop-opacity="0"/>
            <stop offset="1" stop-color="white"/>
            <animate attributeName="x1" values="-82;82" dur="3s" repeatCount="indefinite"/>
            <animate attributeName="x2" values="0;164" dur="3s" repeatCount="indefinite"/>
        </linearGradient>
    </defs>
</svg>